<?xml version="1.0" encoding="utf-8"?>
<svg xmlns="http://www.w3.org/2000/svg" xmlns:xlink="http://www.w3.org/1999/xlink" width="672" height="480" viewBox="0 0 2688 1920">
<defs>
  <clipPath id="clip770">
    <rect x="0" y="0" width="2688" height="1920"/>
  </clipPath>
</defs>
<path clip-path="url(#clip770)" d="M0 1920 L2688 1920 L2688 0 L0 0  Z" fill="#ffffff" fill-rule="evenodd" fill-opacity="1"/>
<defs>
  <clipPath id="clip771">
    <rect x="537" y="0" width="1883" height="1883"/>
  </clipPath>
</defs>
<path clip-path="url(#clip770)" d="M141.839 1800.78 L2640.76 1800.78 L2640.76 47.2441 L141.839 47.2441  Z" fill="#ffffff" fill-rule="evenodd" fill-opacity="1"/>
<defs>
  <clipPath id="clip772">
    <rect x="141" y="47" width="2500" height="1755"/>
  </clipPath>
</defs>
<polyline clip-path="url(#clip772)" style="stroke:#000000; stroke-linecap:round; stroke-linejoin:round; stroke-width:2; stroke-opacity:0.1; fill:none" points="474.504,1800.78 474.504,47.2441 "/>
<polyline clip-path="url(#clip772)" style="stroke:#000000; stroke-linecap:round; stroke-linejoin:round; stroke-width:2; stroke-opacity:0.1; fill:none" points="998.386,1800.78 998.386,47.2441 "/>
<polyline clip-path="url(#clip772)" style="stroke:#000000; stroke-linecap:round; stroke-linejoin:round; stroke-width:2; stroke-opacity:0.1; fill:none" points="1522.27,1800.78 1522.27,47.2441 "/>
<polyline clip-path="url(#clip772)" style="stroke:#000000; stroke-linecap:round; stroke-linejoin:round; stroke-width:2; stroke-opacity:0.1; fill:none" points="2046.15,1800.78 2046.15,47.2441 "/>
<polyline clip-path="url(#clip772)" style="stroke:#000000; stroke-linecap:round; stroke-linejoin:round; stroke-width:2; stroke-opacity:0.1; fill:none" points="2570.03,1800.78 2570.03,47.2441 "/>
<polyline clip-path="url(#clip770)" style="stroke:#000000; stroke-linecap:round; stroke-linejoin:round; stroke-width:4; stroke-opacity:1; fill:none" points="141.839,1800.78 2640.76,1800.78 "/>
<polyline clip-path="url(#clip770)" style="stroke:#000000; stroke-linecap:round; stroke-linejoin:round; stroke-width:4; stroke-opacity:1; fill:none" points="474.504,1800.78 474.504,1781.88 "/>
<polyline clip-path="url(#clip770)" style="stroke:#000000; stroke-linecap:round; stroke-linejoin:round; stroke-width:4; stroke-opacity:1; fill:none" points="998.386,1800.78 998.386,1781.88 "/>
<polyline clip-path="url(#clip770)" style="stroke:#000000; stroke-linecap:round; stroke-linejoin:round; stroke-width:4; stroke-opacity:1; fill:none" points="1522.27,1800.78 1522.27,1781.88 "/>
<polyline clip-path="url(#clip770)" style="stroke:#000000; stroke-linecap:round; stroke-linejoin:round; stroke-width:4; stroke-opacity:1; fill:none" points="2046.15,1800.78 2046.15,1781.88 "/>
<polyline clip-path="url(#clip770)" style="stroke:#000000; stroke-linecap:round; stroke-linejoin:round; stroke-width:4; stroke-opacity:1; fill:none" points="2570.03,1800.78 2570.03,1781.88 "/>
<path clip-path="url(#clip770)" d="M469.157 1861.55 L485.477 1861.55 L485.477 1865.48 L463.532 1865.48 L463.532 1861.55 Q466.194 1858.79 470.778 1854.16 Q475.384 1849.51 476.565 1848.17 Q478.81 1845.65 479.69 1843.91 Q480.592 1842.15 480.592 1840.46 Q480.592 1837.71 478.648 1835.97 Q476.727 1834.23 473.625 1834.23 Q471.426 1834.23 468.972 1835 Q466.542 1835.76 463.764 1837.31 L463.764 1832.59 Q466.588 1831.46 469.041 1830.88 Q471.495 1830.3 473.532 1830.3 Q478.903 1830.3 482.097 1832.98 Q485.291 1835.67 485.291 1840.16 Q485.291 1842.29 484.481 1844.21 Q483.694 1846.11 481.588 1848.7 Q481.009 1849.37 477.907 1852.59 Q474.805 1855.78 469.157 1861.55 Z" fill="#000000" fill-rule="evenodd" fill-opacity="1" /><path clip-path="url(#clip770)" d="M1001.4 1835 L989.59 1853.45 L1001.4 1853.45 L1001.4 1835 M1000.17 1830.92 L1006.05 1830.92 L1006.05 1853.45 L1010.98 1853.45 L1010.98 1857.34 L1006.05 1857.34 L1006.05 1865.48 L1001.4 1865.48 L1001.4 1857.34 L985.794 1857.34 L985.794 1852.82 L1000.17 1830.92 Z" fill="#000000" fill-rule="evenodd" fill-opacity="1" /><path clip-path="url(#clip770)" d="M1522.67 1846.34 Q1519.53 1846.34 1517.67 1848.49 Q1515.84 1850.65 1515.84 1854.4 Q1515.84 1858.12 1517.67 1860.3 Q1519.53 1862.45 1522.67 1862.45 Q1525.82 1862.45 1527.65 1860.3 Q1529.5 1858.12 1529.5 1854.4 Q1529.5 1850.65 1527.65 1848.49 Q1525.82 1846.34 1522.67 1846.34 M1531.96 1831.69 L1531.96 1835.95 Q1530.2 1835.11 1528.39 1834.67 Q1526.61 1834.23 1524.85 1834.23 Q1520.22 1834.23 1517.77 1837.36 Q1515.34 1840.48 1514.99 1846.8 Q1516.35 1844.79 1518.41 1843.72 Q1520.47 1842.64 1522.95 1842.64 Q1528.16 1842.64 1531.17 1845.81 Q1534.2 1848.96 1534.2 1854.4 Q1534.2 1859.72 1531.05 1862.94 Q1527.9 1866.15 1522.67 1866.15 Q1516.68 1866.15 1513.51 1861.57 Q1510.34 1856.96 1510.34 1848.24 Q1510.34 1840.04 1514.22 1835.18 Q1518.11 1830.3 1524.66 1830.3 Q1526.42 1830.3 1528.21 1830.65 Q1530.01 1830.99 1531.96 1831.69 Z" fill="#000000" fill-rule="evenodd" fill-opacity="1" /><path clip-path="url(#clip770)" d="M2046.15 1849.07 Q2042.82 1849.07 2040.9 1850.85 Q2039 1852.64 2039 1855.76 Q2039 1858.89 2040.9 1860.67 Q2042.82 1862.45 2046.15 1862.45 Q2049.48 1862.45 2051.4 1860.67 Q2053.33 1858.86 2053.33 1855.76 Q2053.33 1852.64 2051.4 1850.85 Q2049.51 1849.07 2046.15 1849.07 M2041.47 1847.08 Q2038.46 1846.34 2036.78 1844.28 Q2035.11 1842.22 2035.11 1839.26 Q2035.11 1835.11 2038.05 1832.71 Q2041.01 1830.3 2046.15 1830.3 Q2051.31 1830.3 2054.25 1832.71 Q2057.19 1835.11 2057.19 1839.26 Q2057.19 1842.22 2055.5 1844.28 Q2053.84 1846.34 2050.85 1847.08 Q2054.23 1847.87 2056.1 1850.16 Q2058 1852.45 2058 1855.76 Q2058 1860.78 2054.92 1863.47 Q2051.87 1866.15 2046.15 1866.15 Q2040.43 1866.15 2037.35 1863.47 Q2034.3 1860.78 2034.3 1855.76 Q2034.3 1852.45 2036.2 1850.16 Q2038.09 1847.87 2041.47 1847.08 M2039.76 1839.7 Q2039.76 1842.38 2041.43 1843.89 Q2043.12 1845.39 2046.15 1845.39 Q2049.16 1845.39 2050.85 1843.89 Q2052.56 1842.38 2052.56 1839.7 Q2052.56 1837.01 2050.85 1835.51 Q2049.16 1834 2046.15 1834 Q2043.12 1834 2041.43 1835.51 Q2039.76 1837.01 2039.76 1839.7 Z" fill="#000000" fill-rule="evenodd" fill-opacity="1" /><path clip-path="url(#clip770)" d="M2544.72 1861.55 L2552.36 1861.55 L2552.36 1835.18 L2544.05 1836.85 L2544.05 1832.59 L2552.31 1830.92 L2556.99 1830.92 L2556.99 1861.55 L2564.63 1861.55 L2564.63 1865.48 L2544.72 1865.48 L2544.72 1861.55 Z" fill="#000000" fill-rule="evenodd" fill-opacity="1" /><path clip-path="url(#clip770)" d="M2584.07 1834 Q2580.46 1834 2578.63 1837.57 Q2576.83 1841.11 2576.83 1848.24 Q2576.83 1855.34 2578.63 1858.91 Q2580.46 1862.45 2584.07 1862.45 Q2587.71 1862.45 2589.51 1858.91 Q2591.34 1855.34 2591.34 1848.24 Q2591.34 1841.11 2589.51 1837.57 Q2587.71 1834 2584.07 1834 M2584.07 1830.3 Q2589.88 1830.3 2592.94 1834.9 Q2596.02 1839.49 2596.02 1848.24 Q2596.02 1856.96 2592.94 1861.57 Q2589.88 1866.15 2584.07 1866.15 Q2578.26 1866.15 2575.18 1861.57 Q2572.13 1856.96 2572.13 1848.24 Q2572.13 1839.49 2575.18 1834.9 Q2578.26 1830.3 2584.07 1830.3 Z" fill="#000000" fill-rule="evenodd" fill-opacity="1" /><polyline clip-path="url(#clip772)" style="stroke:#000000; stroke-linecap:round; stroke-linejoin:round; stroke-width:2; stroke-opacity:0.1; fill:none" points="141.839,1478.61 2640.76,1478.61 "/>
<polyline clip-path="url(#clip772)" style="stroke:#000000; stroke-linecap:round; stroke-linejoin:round; stroke-width:2; stroke-opacity:0.1; fill:none" points="141.839,1123.13 2640.76,1123.13 "/>
<polyline clip-path="url(#clip772)" style="stroke:#000000; stroke-linecap:round; stroke-linejoin:round; stroke-width:2; stroke-opacity:0.1; fill:none" points="141.839,767.642 2640.76,767.642 "/>
<polyline clip-path="url(#clip772)" style="stroke:#000000; stroke-linecap:round; stroke-linejoin:round; stroke-width:2; stroke-opacity:0.1; fill:none" points="141.839,412.158 2640.76,412.158 "/>
<polyline clip-path="url(#clip772)" style="stroke:#000000; stroke-linecap:round; stroke-linejoin:round; stroke-width:2; stroke-opacity:0.1; fill:none" points="141.839,56.6741 2640.76,56.6741 "/>
<polyline clip-path="url(#clip770)" style="stroke:#000000; stroke-linecap:round; stroke-linejoin:round; stroke-width:4; stroke-opacity:1; fill:none" points="141.839,1800.78 141.839,47.2441 "/>
<polyline clip-path="url(#clip770)" style="stroke:#000000; stroke-linecap:round; stroke-linejoin:round; stroke-width:4; stroke-opacity:1; fill:none" points="141.839,1478.61 160.737,1478.61 "/>
<polyline clip-path="url(#clip770)" style="stroke:#000000; stroke-linecap:round; stroke-linejoin:round; stroke-width:4; stroke-opacity:1; fill:none" points="141.839,1123.13 160.737,1123.13 "/>
<polyline clip-path="url(#clip770)" style="stroke:#000000; stroke-linecap:round; stroke-linejoin:round; stroke-width:4; stroke-opacity:1; fill:none" points="141.839,767.642 160.737,767.642 "/>
<polyline clip-path="url(#clip770)" style="stroke:#000000; stroke-linecap:round; stroke-linejoin:round; stroke-width:4; stroke-opacity:1; fill:none" points="141.839,412.158 160.737,412.158 "/>
<polyline clip-path="url(#clip770)" style="stroke:#000000; stroke-linecap:round; stroke-linejoin:round; stroke-width:4; stroke-opacity:1; fill:none" points="141.839,56.6741 160.737,56.6741 "/>
<path clip-path="url(#clip770)" d="M85.2001 1491.95 L101.519 1491.95 L101.519 1495.89 L79.5751 1495.89 L79.5751 1491.95 Q82.2371 1489.2 86.8204 1484.57 Q91.4269 1479.92 92.6075 1478.57 Q94.8528 1476.05 95.7324 1474.32 Q96.6352 1472.56 96.6352 1470.87 Q96.6352 1468.11 94.6908 1466.38 Q92.7695 1464.64 89.6677 1464.64 Q87.4686 1464.64 85.0149 1465.4 Q82.5844 1466.17 79.8066 1467.72 L79.8066 1463 Q82.6307 1461.86 85.0843 1461.28 Q87.538 1460.7 89.5751 1460.7 Q94.9454 1460.7 98.1398 1463.39 Q101.334 1466.07 101.334 1470.57 Q101.334 1472.69 100.524 1474.62 Q99.737 1476.51 97.6306 1479.11 Q97.0519 1479.78 93.95 1483 Q90.8482 1486.19 85.2001 1491.95 Z" fill="#000000" fill-rule="evenodd" fill-opacity="1" /><path clip-path="url(#clip770)" d="M91.9362 1109.92 L80.1307 1128.37 L91.9362 1128.37 L91.9362 1109.92 M90.7093 1105.85 L96.5889 1105.85 L96.5889 1128.37 L101.519 1128.37 L101.519 1132.26 L96.5889 1132.26 L96.5889 1140.41 L91.9362 1140.41 L91.9362 1132.26 L76.3344 1132.26 L76.3344 1127.74 L90.7093 1105.85 Z" fill="#000000" fill-rule="evenodd" fill-opacity="1" /><path clip-path="url(#clip770)" d="M89.9917 765.778 Q86.8436 765.778 84.9918 767.931 Q83.1631 770.084 83.1631 773.834 Q83.1631 777.561 84.9918 779.736 Q86.8436 781.889 89.9917 781.889 Q93.1399 781.889 94.9685 779.736 Q96.8204 777.561 96.8204 773.834 Q96.8204 770.084 94.9685 767.931 Q93.1399 765.778 89.9917 765.778 M99.2741 751.125 L99.2741 755.385 Q97.5148 754.551 95.7093 754.112 Q93.9269 753.672 92.1676 753.672 Q87.538 753.672 85.0843 756.797 Q82.6538 759.922 82.3066 766.241 Q83.6723 764.227 85.7325 763.162 Q87.7927 762.074 90.2695 762.074 Q95.4778 762.074 98.487 765.246 Q101.519 768.394 101.519 773.834 Q101.519 779.158 98.3713 782.375 Q95.2232 785.593 89.9917 785.593 Q83.9964 785.593 80.8251 781.01 Q77.6538 776.403 77.6538 767.676 Q77.6538 759.482 81.5427 754.621 Q85.4316 749.737 91.9825 749.737 Q93.7417 749.737 95.5241 750.084 Q97.3296 750.431 99.2741 751.125 Z" fill="#000000" fill-rule="evenodd" fill-opacity="1" /><path clip-path="url(#clip770)" d="M89.6677 413.026 Q86.3343 413.026 84.4131 414.808 Q82.5149 416.591 82.5149 419.716 Q82.5149 422.841 84.4131 424.623 Q86.3343 426.405 89.6677 426.405 Q93.001 426.405 94.9223 424.623 Q96.8435 422.818 96.8435 419.716 Q96.8435 416.591 94.9223 414.808 Q93.0241 413.026 89.6677 413.026 M84.9918 411.035 Q81.9825 410.294 80.2927 408.234 Q78.626 406.174 78.626 403.211 Q78.626 399.068 81.5658 396.66 Q84.5288 394.253 89.6677 394.253 Q94.8297 394.253 97.7695 396.66 Q100.709 399.068 100.709 403.211 Q100.709 406.174 99.0195 408.234 Q97.3528 410.294 94.3667 411.035 Q97.7463 411.822 99.6213 414.114 Q101.519 416.406 101.519 419.716 Q101.519 424.739 98.4408 427.424 Q95.3852 430.109 89.6677 430.109 Q83.9501 430.109 80.8714 427.424 Q77.8159 424.739 77.8159 419.716 Q77.8159 416.406 79.714 414.114 Q81.6121 411.822 84.9918 411.035 M83.2788 403.651 Q83.2788 406.336 84.9455 407.841 Q86.6353 409.345 89.6677 409.345 Q92.6769 409.345 94.3667 407.841 Q96.0797 406.336 96.0797 403.651 Q96.0797 400.966 94.3667 399.461 Q92.6769 397.957 89.6677 397.957 Q86.6353 397.957 84.9455 399.461 Q83.2788 400.966 83.2788 403.651 Z" fill="#000000" fill-rule="evenodd" fill-opacity="1" /><path clip-path="url(#clip770)" d="M50.2234 70.019 L57.8623 70.019 L57.8623 43.6534 L49.5521 45.32 L49.5521 41.0608 L57.816 39.3941 L62.4919 39.3941 L62.4919 70.019 L70.1307 70.019 L70.1307 73.9541 L50.2234 73.9541 L50.2234 70.019 Z" fill="#000000" fill-rule="evenodd" fill-opacity="1" /><path clip-path="url(#clip770)" d="M89.5751 42.4728 Q85.964 42.4728 84.1353 46.0376 Q82.3297 49.5793 82.3297 56.7089 Q82.3297 63.8153 84.1353 67.3801 Q85.964 70.9217 89.5751 70.9217 Q93.2093 70.9217 95.0148 67.3801 Q96.8435 63.8153 96.8435 56.7089 Q96.8435 49.5793 95.0148 46.0376 Q93.2093 42.4728 89.5751 42.4728 M89.5751 38.7691 Q95.3852 38.7691 98.4408 43.3756 Q101.519 47.9589 101.519 56.7089 Q101.519 65.4357 98.4408 70.0421 Q95.3852 74.6254 89.5751 74.6254 Q83.7649 74.6254 80.6862 70.0421 Q77.6307 65.4357 77.6307 56.7089 Q77.6307 47.9589 80.6862 43.3756 Q83.7649 38.7691 89.5751 38.7691 Z" fill="#000000" fill-rule="evenodd" fill-opacity="1" /><polyline clip-path="url(#clip772)" style="stroke:#009af9; stroke-linecap:round; stroke-linejoin:round; stroke-width:4; stroke-opacity:1; fill:none" points="212.563,1733.95 474.504,549.59 736.445,1751.15 998.386,1017.39 1260.33,1746.8 1522.27,591.336 1784.21,1553.04 2046.15,997.382 2308.09,949.699 2570.03,1018.83 "/>
<polyline clip-path="url(#clip772)" style="stroke:#e26f46; stroke-linecap:round; stroke-linejoin:round; stroke-width:4; stroke-opacity:1; fill:none" points="212.563,96.8724 474.504,1196.23 736.445,1164.56 998.386,228.02 1260.33,280.693 1522.27,1591.83 1784.21,1689.09 2046.15,1166.85 2308.09,1727.49 2570.03,1452.32 "/>
<path clip-path="url(#clip770)" d="M2255.14 261.215 L2557.46 261.215 L2557.46 105.695 L2255.14 105.695  Z" fill="#ffffff" fill-rule="evenodd" fill-opacity="1"/>
<polyline clip-path="url(#clip770)" style="stroke:#000000; stroke-linecap:round; stroke-linejoin:round; stroke-width:4; stroke-opacity:1; fill:none" points="2255.14,261.215 2557.46,261.215 2557.46,105.695 2255.14,105.695 2255.14,261.215 "/>
<polyline clip-path="url(#clip770)" style="stroke:#009af9; stroke-linecap:round; stroke-linejoin:round; stroke-width:4; stroke-opacity:1; fill:none" points="2282.9,157.535 2449.5,157.535 "/>
<path clip-path="url(#clip770)" d="M2491.11 177.223 Q2489.3 181.852 2487.59 183.264 Q2485.87 184.676 2483 184.676 L2479.6 184.676 L2479.6 181.112 L2482.1 181.112 Q2483.86 181.112 2484.83 180.278 Q2485.8 179.445 2486.98 176.343 L2487.75 174.399 L2477.26 148.889 L2481.78 148.889 L2489.88 169.167 L2497.98 148.889 L2502.49 148.889 L2491.11 177.223 Z" fill="#000000" fill-rule="evenodd" fill-opacity="1" /><path clip-path="url(#clip770)" d="M2509.79 170.88 L2517.42 170.88 L2517.42 144.515 L2509.11 146.181 L2509.11 141.922 L2517.38 140.255 L2522.05 140.255 L2522.05 170.88 L2529.69 170.88 L2529.69 174.815 L2509.79 174.815 L2509.79 170.88 Z" fill="#000000" fill-rule="evenodd" fill-opacity="1" /><polyline clip-path="url(#clip770)" style="stroke:#e26f46; stroke-linecap:round; stroke-linejoin:round; stroke-width:4; stroke-opacity:1; fill:none" points="2282.9,209.375 2449.5,209.375 "/>
<path clip-path="url(#clip770)" d="M2491.11 229.063 Q2489.3 233.692 2487.59 235.104 Q2485.87 236.516 2483 236.516 L2479.6 236.516 L2479.6 232.952 L2482.1 232.952 Q2483.86 232.952 2484.83 232.118 Q2485.8 231.285 2486.98 228.183 L2487.75 226.239 L2477.26 200.729 L2481.78 200.729 L2489.88 221.007 L2497.98 200.729 L2502.49 200.729 L2491.11 229.063 Z" fill="#000000" fill-rule="evenodd" fill-opacity="1" /><path clip-path="url(#clip770)" d="M2513 222.72 L2529.32 222.72 L2529.32 226.655 L2507.38 226.655 L2507.38 222.72 Q2510.04 219.965 2514.62 215.336 Q2519.23 210.683 2520.41 209.341 Q2522.66 206.817 2523.54 205.081 Q2524.44 203.322 2524.44 201.632 Q2524.44 198.878 2522.49 197.142 Q2520.57 195.405 2517.47 195.405 Q2515.27 195.405 2512.82 196.169 Q2510.39 196.933 2507.61 198.484 L2507.61 193.762 Q2510.43 192.628 2512.89 192.049 Q2515.34 191.47 2517.38 191.47 Q2522.75 191.47 2525.94 194.155 Q2529.14 196.841 2529.14 201.331 Q2529.14 203.461 2528.33 205.382 Q2527.54 207.28 2525.43 209.873 Q2524.86 210.544 2521.75 213.762 Q2518.65 216.956 2513 222.72 Z" fill="#000000" fill-rule="evenodd" fill-opacity="1" /></svg>
