<?xml version="1.0" encoding="utf-8"?>
<svg xmlns="http://www.w3.org/2000/svg" xmlns:xlink="http://www.w3.org/1999/xlink" width="672" height="480" viewBox="0 0 2688 1920">
<defs>
  <clipPath id="clip730">
    <rect x="0" y="0" width="2688" height="1920"/>
  </clipPath>
</defs>
<path clip-path="url(#clip730)" d="M0 1920 L2688 1920 L2688 0 L0 0  Z" fill="#ffffff" fill-rule="evenodd" fill-opacity="1"/>
<defs>
  <clipPath id="clip731">
    <rect x="537" y="0" width="1883" height="1883"/>
  </clipPath>
</defs>
<path clip-path="url(#clip730)" d="M159.478 1800.78 L2640.76 1800.78 L2640.76 47.2441 L159.478 47.2441  Z" fill="#ffffff" fill-rule="evenodd" fill-opacity="1"/>
<defs>
  <clipPath id="clip732">
    <rect x="159" y="47" width="2482" height="1755"/>
  </clipPath>
</defs>
<polyline clip-path="url(#clip732)" style="stroke:#000000; stroke-linecap:round; stroke-linejoin:round; stroke-width:2; stroke-opacity:0.1; fill:none" points="354.491,1800.78 354.491,47.2441 "/>
<polyline clip-path="url(#clip732)" style="stroke:#000000; stroke-linecap:round; stroke-linejoin:round; stroke-width:2; stroke-opacity:0.1; fill:none" points="971.933,1800.78 971.933,47.2441 "/>
<polyline clip-path="url(#clip732)" style="stroke:#000000; stroke-linecap:round; stroke-linejoin:round; stroke-width:2; stroke-opacity:0.1; fill:none" points="1589.37,1800.78 1589.37,47.2441 "/>
<polyline clip-path="url(#clip732)" style="stroke:#000000; stroke-linecap:round; stroke-linejoin:round; stroke-width:2; stroke-opacity:0.1; fill:none" points="2206.82,1800.78 2206.82,47.2441 "/>
<polyline clip-path="url(#clip730)" style="stroke:#000000; stroke-linecap:round; stroke-linejoin:round; stroke-width:4; stroke-opacity:1; fill:none" points="159.478,1800.78 2640.76,1800.78 "/>
<polyline clip-path="url(#clip730)" style="stroke:#000000; stroke-linecap:round; stroke-linejoin:round; stroke-width:4; stroke-opacity:1; fill:none" points="354.491,1800.78 354.491,1781.88 "/>
<polyline clip-path="url(#clip730)" style="stroke:#000000; stroke-linecap:round; stroke-linejoin:round; stroke-width:4; stroke-opacity:1; fill:none" points="971.933,1800.78 971.933,1781.88 "/>
<polyline clip-path="url(#clip730)" style="stroke:#000000; stroke-linecap:round; stroke-linejoin:round; stroke-width:4; stroke-opacity:1; fill:none" points="1589.37,1800.78 1589.37,1781.88 "/>
<polyline clip-path="url(#clip730)" style="stroke:#000000; stroke-linecap:round; stroke-linejoin:round; stroke-width:4; stroke-opacity:1; fill:none" points="2206.82,1800.78 2206.82,1781.88 "/>
<path clip-path="url(#clip730)" d="M332.674 1834 Q329.063 1834 327.234 1837.57 Q325.429 1841.11 325.429 1848.24 Q325.429 1855.34 327.234 1858.91 Q329.063 1862.45 332.674 1862.45 Q336.308 1862.45 338.114 1858.91 Q339.943 1855.34 339.943 1848.24 Q339.943 1841.11 338.114 1837.57 Q336.308 1834 332.674 1834 M332.674 1830.3 Q338.484 1830.3 341.54 1834.9 Q344.618 1839.49 344.618 1848.24 Q344.618 1856.96 341.54 1861.57 Q338.484 1866.15 332.674 1866.15 Q326.864 1866.15 323.785 1861.57 Q320.73 1856.96 320.73 1848.24 Q320.73 1839.49 323.785 1834.9 Q326.864 1830.3 332.674 1830.3 Z" fill="#000000" fill-rule="evenodd" fill-opacity="1" /><path clip-path="url(#clip730)" d="M352.836 1859.6 L357.72 1859.6 L357.72 1865.48 L352.836 1865.48 L352.836 1859.6 Z" fill="#000000" fill-rule="evenodd" fill-opacity="1" /><path clip-path="url(#clip730)" d="M371.933 1861.55 L388.252 1861.55 L388.252 1865.48 L366.308 1865.48 L366.308 1861.55 Q368.97 1858.79 373.553 1854.16 Q378.16 1849.51 379.34 1848.17 Q381.586 1845.65 382.465 1843.91 Q383.368 1842.15 383.368 1840.46 Q383.368 1837.71 381.424 1835.97 Q379.503 1834.23 376.401 1834.23 Q374.202 1834.23 371.748 1835 Q369.317 1835.76 366.54 1837.31 L366.54 1832.59 Q369.364 1831.46 371.817 1830.88 Q374.271 1830.3 376.308 1830.3 Q381.678 1830.3 384.873 1832.98 Q388.067 1835.67 388.067 1840.16 Q388.067 1842.29 387.257 1844.21 Q386.47 1846.11 384.364 1848.7 Q383.785 1849.37 380.683 1852.59 Q377.581 1855.78 371.933 1861.55 Z" fill="#000000" fill-rule="evenodd" fill-opacity="1" /><path clip-path="url(#clip730)" d="M949.074 1834 Q945.463 1834 943.634 1837.57 Q941.829 1841.11 941.829 1848.24 Q941.829 1855.34 943.634 1858.91 Q945.463 1862.45 949.074 1862.45 Q952.708 1862.45 954.514 1858.91 Q956.342 1855.34 956.342 1848.24 Q956.342 1841.11 954.514 1837.57 Q952.708 1834 949.074 1834 M949.074 1830.3 Q954.884 1830.3 957.94 1834.9 Q961.018 1839.49 961.018 1848.24 Q961.018 1856.96 957.94 1861.57 Q954.884 1866.15 949.074 1866.15 Q943.264 1866.15 940.185 1861.57 Q937.129 1856.96 937.129 1848.24 Q937.129 1839.49 940.185 1834.9 Q943.264 1830.3 949.074 1830.3 Z" fill="#000000" fill-rule="evenodd" fill-opacity="1" /><path clip-path="url(#clip730)" d="M969.236 1859.6 L974.12 1859.6 L974.12 1865.48 L969.236 1865.48 L969.236 1859.6 Z" fill="#000000" fill-rule="evenodd" fill-opacity="1" /><path clip-path="url(#clip730)" d="M997.152 1835 L985.347 1853.45 L997.152 1853.45 L997.152 1835 M995.925 1830.92 L1001.81 1830.92 L1001.81 1853.45 L1006.74 1853.45 L1006.74 1857.34 L1001.81 1857.34 L1001.81 1865.48 L997.152 1865.48 L997.152 1857.34 L981.551 1857.34 L981.551 1852.82 L995.925 1830.92 Z" fill="#000000" fill-rule="evenodd" fill-opacity="1" /><path clip-path="url(#clip730)" d="M1566.68 1834 Q1563.07 1834 1561.24 1837.57 Q1559.43 1841.11 1559.43 1848.24 Q1559.43 1855.34 1561.24 1858.91 Q1563.07 1862.45 1566.68 1862.45 Q1570.31 1862.45 1572.12 1858.91 Q1573.95 1855.34 1573.95 1848.24 Q1573.95 1841.11 1572.12 1837.57 Q1570.31 1834 1566.68 1834 M1566.68 1830.3 Q1572.49 1830.3 1575.54 1834.9 Q1578.62 1839.49 1578.62 1848.24 Q1578.62 1856.96 1575.54 1861.57 Q1572.49 1866.15 1566.68 1866.15 Q1560.87 1866.15 1557.79 1861.57 Q1554.73 1856.96 1554.73 1848.24 Q1554.73 1839.49 1557.79 1834.9 Q1560.87 1830.3 1566.68 1830.3 Z" fill="#000000" fill-rule="evenodd" fill-opacity="1" /><path clip-path="url(#clip730)" d="M1586.84 1859.6 L1591.72 1859.6 L1591.72 1865.48 L1586.84 1865.48 L1586.84 1859.6 Z" fill="#000000" fill-rule="evenodd" fill-opacity="1" /><path clip-path="url(#clip730)" d="M1612.49 1846.34 Q1609.34 1846.34 1607.49 1848.49 Q1605.66 1850.65 1605.66 1854.4 Q1605.66 1858.12 1607.49 1860.3 Q1609.34 1862.45 1612.49 1862.45 Q1615.64 1862.45 1617.46 1860.3 Q1619.32 1858.12 1619.32 1854.4 Q1619.32 1850.65 1617.46 1848.49 Q1615.64 1846.34 1612.49 1846.34 M1621.77 1831.69 L1621.77 1835.95 Q1620.01 1835.11 1618.2 1834.67 Q1616.42 1834.23 1614.66 1834.23 Q1610.03 1834.23 1607.58 1837.36 Q1605.15 1840.48 1604.8 1846.8 Q1606.17 1844.79 1608.23 1843.72 Q1610.29 1842.64 1612.77 1842.64 Q1617.97 1842.64 1620.98 1845.81 Q1624.01 1848.96 1624.01 1854.4 Q1624.01 1859.72 1620.87 1862.94 Q1617.72 1866.15 1612.49 1866.15 Q1606.49 1866.15 1603.32 1861.57 Q1600.15 1856.96 1600.15 1848.24 Q1600.15 1840.04 1604.04 1835.18 Q1607.93 1830.3 1614.48 1830.3 Q1616.24 1830.3 1618.02 1830.65 Q1619.83 1830.99 1621.77 1831.69 Z" fill="#000000" fill-rule="evenodd" fill-opacity="1" /><path clip-path="url(#clip730)" d="M2184.25 1834 Q2180.63 1834 2178.81 1837.57 Q2177 1841.11 2177 1848.24 Q2177 1855.34 2178.81 1858.91 Q2180.63 1862.45 2184.25 1862.45 Q2187.88 1862.45 2189.69 1858.91 Q2191.51 1855.34 2191.51 1848.24 Q2191.51 1841.11 2189.69 1837.57 Q2187.88 1834 2184.25 1834 M2184.25 1830.3 Q2190.06 1830.3 2193.11 1834.9 Q2196.19 1839.49 2196.19 1848.24 Q2196.19 1856.96 2193.11 1861.57 Q2190.06 1866.15 2184.25 1866.15 Q2178.44 1866.15 2175.36 1861.57 Q2172.3 1856.96 2172.3 1848.24 Q2172.3 1839.49 2175.36 1834.9 Q2178.44 1830.3 2184.25 1830.3 Z" fill="#000000" fill-rule="evenodd" fill-opacity="1" /><path clip-path="url(#clip730)" d="M2204.41 1859.6 L2209.29 1859.6 L2209.29 1865.48 L2204.41 1865.48 L2204.41 1859.6 Z" fill="#000000" fill-rule="evenodd" fill-opacity="1" /><path clip-path="url(#clip730)" d="M2229.48 1849.07 Q2226.14 1849.07 2224.22 1850.85 Q2222.32 1852.64 2222.32 1855.76 Q2222.32 1858.89 2224.22 1860.67 Q2226.14 1862.45 2229.48 1862.45 Q2232.81 1862.45 2234.73 1860.67 Q2236.65 1858.86 2236.65 1855.76 Q2236.65 1852.64 2234.73 1850.85 Q2232.83 1849.07 2229.48 1849.07 M2224.8 1847.08 Q2221.79 1846.34 2220.1 1844.28 Q2218.44 1842.22 2218.44 1839.26 Q2218.44 1835.11 2221.38 1832.71 Q2224.34 1830.3 2229.48 1830.3 Q2234.64 1830.3 2237.58 1832.71 Q2240.52 1835.11 2240.52 1839.26 Q2240.52 1842.22 2238.83 1844.28 Q2237.16 1846.34 2234.18 1847.08 Q2237.56 1847.87 2239.43 1850.16 Q2241.33 1852.45 2241.33 1855.76 Q2241.33 1860.78 2238.25 1863.47 Q2235.19 1866.15 2229.48 1866.15 Q2223.76 1866.15 2220.68 1863.47 Q2217.63 1860.78 2217.63 1855.76 Q2217.63 1852.45 2219.52 1850.16 Q2221.42 1847.87 2224.8 1847.08 M2223.09 1839.7 Q2223.09 1842.38 2224.76 1843.89 Q2226.44 1845.39 2229.48 1845.39 Q2232.49 1845.39 2234.18 1843.89 Q2235.89 1842.38 2235.89 1839.7 Q2235.89 1837.01 2234.18 1835.51 Q2232.49 1834 2229.48 1834 Q2226.44 1834 2224.76 1835.51 Q2223.09 1837.01 2223.09 1839.7 Z" fill="#000000" fill-rule="evenodd" fill-opacity="1" /><polyline clip-path="url(#clip732)" style="stroke:#000000; stroke-linecap:round; stroke-linejoin:round; stroke-width:2; stroke-opacity:0.1; fill:none" points="159.478,1599.3 2640.76,1599.3 "/>
<polyline clip-path="url(#clip732)" style="stroke:#000000; stroke-linecap:round; stroke-linejoin:round; stroke-width:2; stroke-opacity:0.1; fill:none" points="159.478,1210.9 2640.76,1210.9 "/>
<polyline clip-path="url(#clip732)" style="stroke:#000000; stroke-linecap:round; stroke-linejoin:round; stroke-width:2; stroke-opacity:0.1; fill:none" points="159.478,822.508 2640.76,822.508 "/>
<polyline clip-path="url(#clip732)" style="stroke:#000000; stroke-linecap:round; stroke-linejoin:round; stroke-width:2; stroke-opacity:0.1; fill:none" points="159.478,434.113 2640.76,434.113 "/>
<polyline clip-path="url(#clip730)" style="stroke:#000000; stroke-linecap:round; stroke-linejoin:round; stroke-width:4; stroke-opacity:1; fill:none" points="159.478,1800.78 159.478,47.2441 "/>
<polyline clip-path="url(#clip730)" style="stroke:#000000; stroke-linecap:round; stroke-linejoin:round; stroke-width:4; stroke-opacity:1; fill:none" points="159.478,1599.3 178.376,1599.3 "/>
<polyline clip-path="url(#clip730)" style="stroke:#000000; stroke-linecap:round; stroke-linejoin:round; stroke-width:4; stroke-opacity:1; fill:none" points="159.478,1210.9 178.376,1210.9 "/>
<polyline clip-path="url(#clip730)" style="stroke:#000000; stroke-linecap:round; stroke-linejoin:round; stroke-width:4; stroke-opacity:1; fill:none" points="159.478,822.508 178.376,822.508 "/>
<polyline clip-path="url(#clip730)" style="stroke:#000000; stroke-linecap:round; stroke-linejoin:round; stroke-width:4; stroke-opacity:1; fill:none" points="159.478,434.113 178.376,434.113 "/>
<path clip-path="url(#clip730)" d="M63.5798 1585.1 Q59.9687 1585.1 58.14 1588.66 Q56.3345 1592.2 56.3345 1599.33 Q56.3345 1606.44 58.14 1610 Q59.9687 1613.55 63.5798 1613.55 Q67.2141 1613.55 69.0196 1610 Q70.8483 1606.44 70.8483 1599.33 Q70.8483 1592.2 69.0196 1588.66 Q67.2141 1585.1 63.5798 1585.1 M63.5798 1581.39 Q69.39 1581.39 72.4455 1586 Q75.5242 1590.58 75.5242 1599.33 Q75.5242 1608.06 72.4455 1612.67 Q69.39 1617.25 63.5798 1617.25 Q57.7697 1617.25 54.691 1612.67 Q51.6354 1608.06 51.6354 1599.33 Q51.6354 1590.58 54.691 1586 Q57.7697 1581.39 63.5798 1581.39 Z" fill="#000000" fill-rule="evenodd" fill-opacity="1" /><path clip-path="url(#clip730)" d="M83.7418 1610.7 L88.626 1610.7 L88.626 1616.58 L83.7418 1616.58 L83.7418 1610.7 Z" fill="#000000" fill-rule="evenodd" fill-opacity="1" /><path clip-path="url(#clip730)" d="M102.839 1612.64 L119.158 1612.64 L119.158 1616.58 L97.2139 1616.58 L97.2139 1612.64 Q99.8759 1609.89 104.459 1605.26 Q109.066 1600.61 110.246 1599.26 Q112.492 1596.74 113.371 1595 Q114.274 1593.24 114.274 1591.55 Q114.274 1588.8 112.33 1587.06 Q110.408 1585.33 107.306 1585.33 Q105.107 1585.33 102.654 1586.09 Q100.223 1586.86 97.4454 1588.41 L97.4454 1583.68 Q100.269 1582.55 102.723 1581.97 Q105.177 1581.39 107.214 1581.39 Q112.584 1581.39 115.779 1584.08 Q118.973 1586.76 118.973 1591.25 Q118.973 1593.38 118.163 1595.3 Q117.376 1597.2 115.269 1599.8 Q114.691 1600.47 111.589 1603.68 Q108.487 1606.88 102.839 1612.64 Z" fill="#000000" fill-rule="evenodd" fill-opacity="1" /><path clip-path="url(#clip730)" d="M61.4965 1196.7 Q57.8854 1196.7 56.0567 1200.27 Q54.2512 1203.81 54.2512 1210.94 Q54.2512 1218.04 56.0567 1221.61 Q57.8854 1225.15 61.4965 1225.15 Q65.1307 1225.15 66.9363 1221.61 Q68.765 1218.04 68.765 1210.94 Q68.765 1203.81 66.9363 1200.27 Q65.1307 1196.7 61.4965 1196.7 M61.4965 1193 Q67.3067 1193 70.3622 1197.6 Q73.4409 1202.19 73.4409 1210.94 Q73.4409 1219.66 70.3622 1224.27 Q67.3067 1228.85 61.4965 1228.85 Q55.6864 1228.85 52.6077 1224.27 Q49.5521 1219.66 49.5521 1210.94 Q49.5521 1202.19 52.6077 1197.6 Q55.6864 1193 61.4965 1193 Z" fill="#000000" fill-rule="evenodd" fill-opacity="1" /><path clip-path="url(#clip730)" d="M81.6584 1222.3 L86.5427 1222.3 L86.5427 1228.18 L81.6584 1228.18 L81.6584 1222.3 Z" fill="#000000" fill-rule="evenodd" fill-opacity="1" /><path clip-path="url(#clip730)" d="M109.575 1197.7 L97.7695 1216.15 L109.575 1216.15 L109.575 1197.7 M108.348 1193.62 L114.228 1193.62 L114.228 1216.15 L119.158 1216.15 L119.158 1220.03 L114.228 1220.03 L114.228 1228.18 L109.575 1228.18 L109.575 1220.03 L93.9732 1220.03 L93.9732 1215.52 L108.348 1193.62 Z" fill="#000000" fill-rule="evenodd" fill-opacity="1" /><path clip-path="url(#clip730)" d="M61.8206 808.307 Q58.2095 808.307 56.3808 811.872 Q54.5752 815.413 54.5752 822.543 Q54.5752 829.649 56.3808 833.214 Q58.2095 836.756 61.8206 836.756 Q65.4548 836.756 67.2604 833.214 Q69.0891 829.649 69.0891 822.543 Q69.0891 815.413 67.2604 811.872 Q65.4548 808.307 61.8206 808.307 M61.8206 804.603 Q67.6307 804.603 70.6863 809.21 Q73.765 813.793 73.765 822.543 Q73.765 831.27 70.6863 835.876 Q67.6307 840.459 61.8206 840.459 Q56.0104 840.459 52.9317 835.876 Q49.8762 831.27 49.8762 822.543 Q49.8762 813.793 52.9317 809.21 Q56.0104 804.603 61.8206 804.603 Z" fill="#000000" fill-rule="evenodd" fill-opacity="1" /><path clip-path="url(#clip730)" d="M81.9825 833.909 L86.8667 833.909 L86.8667 839.788 L81.9825 839.788 L81.9825 833.909 Z" fill="#000000" fill-rule="evenodd" fill-opacity="1" /><path clip-path="url(#clip730)" d="M107.631 820.645 Q104.482 820.645 102.631 822.797 Q100.802 824.95 100.802 828.7 Q100.802 832.427 102.631 834.603 Q104.482 836.756 107.631 836.756 Q110.779 836.756 112.607 834.603 Q114.459 832.427 114.459 828.7 Q114.459 824.95 112.607 822.797 Q110.779 820.645 107.631 820.645 M116.913 805.992 L116.913 810.251 Q115.154 809.418 113.348 808.978 Q111.566 808.538 109.806 808.538 Q105.177 808.538 102.723 811.663 Q100.293 814.788 99.9454 821.108 Q101.311 819.094 103.371 818.029 Q105.431 816.941 107.908 816.941 Q113.117 816.941 116.126 820.112 Q119.158 823.26 119.158 828.7 Q119.158 834.024 116.01 837.242 Q112.862 840.459 107.631 840.459 Q101.635 840.459 98.4639 835.876 Q95.2926 831.27 95.2926 822.543 Q95.2926 814.348 99.1815 809.487 Q103.07 804.603 109.621 804.603 Q111.38 804.603 113.163 804.95 Q114.968 805.298 116.913 805.992 Z" fill="#000000" fill-rule="evenodd" fill-opacity="1" /><path clip-path="url(#clip730)" d="M62.0752 419.912 Q58.4641 419.912 56.6354 423.477 Q54.8299 427.018 54.8299 434.148 Q54.8299 441.255 56.6354 444.819 Q58.4641 448.361 62.0752 448.361 Q65.7094 448.361 67.515 444.819 Q69.3437 441.255 69.3437 434.148 Q69.3437 427.018 67.515 423.477 Q65.7094 419.912 62.0752 419.912 M62.0752 416.208 Q67.8854 416.208 70.9409 420.815 Q74.0196 425.398 74.0196 434.148 Q74.0196 442.875 70.9409 447.481 Q67.8854 452.065 62.0752 452.065 Q56.2651 452.065 53.1864 447.481 Q50.1308 442.875 50.1308 434.148 Q50.1308 425.398 53.1864 420.815 Q56.2651 416.208 62.0752 416.208 Z" fill="#000000" fill-rule="evenodd" fill-opacity="1" /><path clip-path="url(#clip730)" d="M82.2371 445.514 L87.1214 445.514 L87.1214 451.393 L82.2371 451.393 L82.2371 445.514 Z" fill="#000000" fill-rule="evenodd" fill-opacity="1" /><path clip-path="url(#clip730)" d="M107.306 434.981 Q103.973 434.981 102.052 436.764 Q100.154 438.546 100.154 441.671 Q100.154 444.796 102.052 446.579 Q103.973 448.361 107.306 448.361 Q110.64 448.361 112.561 446.579 Q114.482 444.773 114.482 441.671 Q114.482 438.546 112.561 436.764 Q110.663 434.981 107.306 434.981 M102.631 432.991 Q99.6213 432.25 97.9315 430.19 Q96.2648 428.13 96.2648 425.167 Q96.2648 421.023 99.2046 418.616 Q102.168 416.208 107.306 416.208 Q112.468 416.208 115.408 418.616 Q118.348 421.023 118.348 425.167 Q118.348 428.13 116.658 430.19 Q114.992 432.25 112.005 432.991 Q115.385 433.778 117.26 436.069 Q119.158 438.361 119.158 441.671 Q119.158 446.694 116.08 449.379 Q113.024 452.065 107.306 452.065 Q101.589 452.065 98.5102 449.379 Q95.4547 446.694 95.4547 441.671 Q95.4547 438.361 97.3528 436.069 Q99.2509 433.778 102.631 432.991 M100.918 425.606 Q100.918 428.292 102.584 429.796 Q104.274 431.301 107.306 431.301 Q110.316 431.301 112.005 429.796 Q113.718 428.292 113.718 425.606 Q113.718 422.921 112.005 421.417 Q110.316 419.912 107.306 419.912 Q104.274 419.912 102.584 421.417 Q100.918 422.921 100.918 425.606 Z" fill="#000000" fill-rule="evenodd" fill-opacity="1" /><polyline clip-path="url(#clip732)" style="stroke:#009af9; stroke-linecap:round; stroke-linejoin:round; stroke-width:4; stroke-opacity:1; fill:none" points="2181.52,1346.33 229.703,1168.21 768.768,656.844 2241.99,1413.26 2196.41,96.8724 2570.53,1512.71 698.18,1077.39 2061.43,1449.66 1693.87,764.413 2515.39,1751.15 "/>
<path clip-path="url(#clip730)" d="M242.187 209.375 L542.746 209.375 L542.746 105.695 L242.187 105.695  Z" fill="#ffffff" fill-rule="evenodd" fill-opacity="1"/>
<polyline clip-path="url(#clip730)" style="stroke:#000000; stroke-linecap:round; stroke-linejoin:round; stroke-width:4; stroke-opacity:1; fill:none" points="242.187,209.375 542.746,209.375 542.746,105.695 242.187,105.695 242.187,209.375 "/>
<polyline clip-path="url(#clip730)" style="stroke:#009af9; stroke-linecap:round; stroke-linejoin:round; stroke-width:4; stroke-opacity:1; fill:none" points="269.757,157.535 435.176,157.535 "/>
<path clip-path="url(#clip730)" d="M476.588 177.223 Q474.782 181.852 473.07 183.264 Q471.357 184.676 468.486 184.676 L465.083 184.676 L465.083 181.112 L467.583 181.112 Q469.343 181.112 470.315 180.278 Q471.287 179.445 472.468 176.343 L473.232 174.399 L462.746 148.889 L467.259 148.889 L475.361 169.167 L483.463 148.889 L487.977 148.889 L476.588 177.223 Z" fill="#000000" fill-rule="evenodd" fill-opacity="1" /><path clip-path="url(#clip730)" d="M495.268 170.88 L502.907 170.88 L502.907 144.515 L494.597 146.181 L494.597 141.922 L502.861 140.255 L507.537 140.255 L507.537 170.88 L515.176 170.88 L515.176 174.815 L495.268 174.815 L495.268 170.88 Z" fill="#000000" fill-rule="evenodd" fill-opacity="1" /></svg>
